<?xml version="1.0" encoding="UTF-8" standalone="no"?>
<!-- Generator: Adobe Illustrator 27.5.0, SVG Export Plug-In . SVG Version: 6.00 Build 0)  -->

<svg
   version="1.1"
   x="0px"
   y="0px"
   viewBox="0 0 1122 1122"
   style="enable-background:new 0 0 1122 1122;"
   xml:space="preserve"
   id="svg4"
   sodipodi:docname="pdf-icon.svg"
   inkscape:version="1.4 (e7c3feb100, 2024-10-09)"
   xmlns:inkscape="http://www.inkscape.org/namespaces/inkscape"
   xmlns:sodipodi="http://sodipodi.sourceforge.net/DTD/sodipodi-0.dtd"
   xmlns="http://www.w3.org/2000/svg"
   xmlns:svg="http://www.w3.org/2000/svg"><defs
   id="defs4" /><sodipodi:namedview
   id="namedview4"
   pagecolor="#ffffff"
   bordercolor="#000000"
   borderopacity="0.25"
   inkscape:showpageshadow="2"
   inkscape:pageopacity="0.0"
   inkscape:pagecheckerboard="0"
   inkscape:deskcolor="#d1d1d1"
   inkscape:zoom="1.0338681"
   inkscape:cx="561"
   inkscape:cy="561"
   inkscape:window-width="2560"
   inkscape:window-height="1371"
   inkscape:window-x="0"
   inkscape:window-y="0"
   inkscape:window-maximized="1"
   inkscape:current-layer="svg4" />
<g
   id="Bg">
	<rect
   style="fill:#FFFFFF;"
   width="1122"
   height="1122"
   id="rect1" />
</g>
<g
   id="Object"
   transform="matrix(1.8040804,0,0,1.8040804,-470.22624,-447.22012)">
	<g
   id="g4">
		<polygon
   style="fill:#ffffff"
   points="614.898,635.796 621.755,643.267 628.327,635.796 "
   id="polygon1" />
		<path
   style="fill:#ffffff"
   d="m 373.953,311.257 v 499.479 h 282.135 v -71.193 c 0,-3.071 1.253,-6.073 3.426,-8.245 2.172,-2.17 5.168,-3.414 8.242,-3.414 h 74.198 V 570.443 l -104.053,118.26 c -3.952,4.484 -9.629,7.084 -15.814,7.147 -5.889,0 -11.554,-2.487 -15.53,-6.826 L 557.711,635.796 H 416.754 v -34.621 h 241.459 v 0.656 l 20.625,-23.436 H 416.754 V 543.771 H 698.21 v 12.6 l 43.744,-49.712 V 311.257 Z M 698.21,520.991 H 416.754 V 486.37 H 698.21 Z m 0,-57.403 H 457.762 V 428.967 H 698.21 Z"
   id="path1" />
		<path
   style="fill:#616e7d"
   d="m 741.955,727.884 h -74.198 c -3.075,0 -6.07,1.244 -8.242,3.414 -2.173,2.172 -3.426,5.174 -3.426,8.245 v 71.193 H 373.953 V 311.257 H 741.955 V 506.66 L 765.28,480.155 V 299.598 c 0,-3.071 -1.247,-6.073 -3.413,-8.246 -2.173,-2.17 -5.181,-3.414 -8.249,-3.414 h -391.32 c -3.081,0 -6.076,1.244 -8.249,3.414 -2.173,2.173 -3.414,5.175 -3.414,8.246 v 522.804 c 0,3.071 1.241,6.073 3.414,8.246 2.173,2.17 5.168,3.414 8.249,3.414 h 320.039 c 3.068,0 6.046,-1.223 8.213,-3.386 l 35.955,-35.719 0.048,-0.048 35.326,-35.474 c 2.173,-2.179 3.402,-5.162 3.402,-8.231 V 543.935 l -23.325,26.508 v 157.441 z m -62.536,83.27 v -59.951 h 62.112 z"
   id="path2" />
		<polygon
   style="fill:#ffffff"
   points="679.419,751.203 679.419,811.154 741.531,751.203 "
   id="polygon2" />
		<rect
   x="457.76199"
   y="428.96701"
   style="fill:#82bfab"
   width="240.448"
   height="34.620998"
   id="rect2" />
		<rect
   x="416.754"
   y="486.371"
   style="fill:#82bfab"
   width="281.457"
   height="34.620998"
   id="rect3" />
		<polygon
   style="fill:#82bfab"
   points="678.838,578.395 698.21,556.372 698.21,543.771 416.754,543.771 416.754,578.395 "
   id="polygon3" />
		<path
   style="fill:#82bfab"
   d="m 416.754,601.175 v 34.621 h 140.958 l -8.388,-9.142 -10.319,-11.247 c -1.725,-1.888 -2.015,-4.682 -0.708,-6.885 1.059,-1.789 2.972,-2.848 4.987,-2.848 l 1.392,0.173 53.524,13.181 c 1.108,0.279 2.106,0.874 2.881,1.716 l 13.817,15.051 h 13.43 l 29.885,-33.964 v -0.656 z"
   id="path3" />
		<path
   style="fill:#aad4c8"
   d="m 825.388,466.834 -22.913,-20.165 c -1.059,-0.941 -2.421,-1.453 -3.831,-1.453 l -0.369,0.012 c -1.543,0.094 -2.978,0.802 -3.989,1.961 l -29.007,32.965 -23.325,26.505 -43.744,49.712 -19.373,22.023 -20.625,23.436 -29.885,33.964 -6.572,7.471 -6.857,-7.471 -13.817,-15.051 c -0.775,-0.842 -1.773,-1.437 -2.881,-1.716 l -53.524,-13.181 -1.392,-0.173 c -2.015,0 -3.928,1.059 -4.987,2.848 -1.308,2.203 -1.017,4.996 0.708,6.885 l 10.319,11.247 8.388,9.142 48.846,53.228 c 3.976,4.339 9.641,6.826 15.53,6.826 6.185,-0.063 11.862,-2.663 15.814,-7.147 l 104.053,-118.26 23.325,-26.508 60.635,-68.915 c 2.124,-2.402 1.888,-6.07 -0.527,-8.185 z"
   id="path4" />
	</g>
</g>
</svg>
